<svg width="512" height="512" viewBox="0 0 512 512" fill="none" xmlns="http://www.w3.org/2000/svg">
<g clip-path="url(#clip0_105_2)">
<path d="M256 0.0112305C114.63 0.0112305 0 114.619 0 256C0 397.381 114.619 511.989 256 511.989C397.393 511.989 512 397.381 512 256C512 114.619 397.393 0.0112305 256 0.0112305ZM256 76.5548C278.457 76.5534 299.995 85.4729 315.875 101.351C331.755 117.23 340.678 138.766 340.679 161.223C340.681 183.68 331.761 205.217 315.883 221.098C300.005 236.978 278.468 245.901 256.011 245.902C233.554 245.904 212.017 236.984 196.136 221.106C180.256 205.227 171.333 183.691 171.332 161.234C171.33 138.777 180.25 117.24 196.128 101.359C212.007 85.4787 233.543 76.5563 256 76.5548ZM255.944 445.059C211.084 445.109 167.687 429.107 133.6 399.945C129.633 396.56 126.447 392.355 124.261 387.621C122.075 382.886 120.942 377.734 120.938 372.519C120.938 325.1 159.317 287.148 206.748 287.148H305.275C352.717 287.148 390.949 325.1 390.949 372.519C390.952 377.732 389.823 382.884 387.639 387.617C385.454 392.351 382.268 396.553 378.299 399.934C344.213 429.108 300.81 445.115 255.944 445.059Z" fill="white"/>
</g>
<defs>
<clipPath id="clip0_105_2">
<rect width="512" height="512" fill="white"/>
</clipPath>
</defs>
</svg>
